<svg width="24" height="23" viewBox="0 0 24 23" fill="none" xmlns="http://www.w3.org/2000/svg">
    <path d="M4.8151 10.5831H14.3984L11.2455 7.56725C11.1557 7.48203 11.0844 7.38065 11.0357 7.26895C10.9871 7.15724 10.962 7.03743 10.962 6.91642C10.962 6.79541 10.9871 6.67559 11.0357 6.56389C11.0844 6.45218 11.1557 6.3508 11.2455 6.26558C11.4251 6.09485 11.668 5.99902 11.9211 5.99902C12.1743 5.99902 12.4172 6.09485 12.5968 6.26558L16.708 10.2073C17.068 10.5495 17.2713 11.0143 17.2734 11.4998C17.2688 11.982 17.0656 12.4431 16.708 12.7831L12.5968 16.7248C12.5074 16.8096 12.4015 16.8768 12.285 16.9225C12.1685 16.9682 12.0437 16.9915 11.9178 16.9911C11.7918 16.9907 11.6672 16.9665 11.5511 16.92C11.4349 16.8736 11.3295 16.8056 11.2407 16.7202C11.152 16.6347 11.0817 16.5334 11.034 16.4219C10.9862 16.3105 10.9618 16.1911 10.9623 16.0707C10.9627 15.9502 10.988 15.831 11.0366 15.7199C11.0852 15.6088 11.1562 15.508 11.2455 15.4231L14.3984 12.4164H4.8151C4.56094 12.4164 4.31718 12.3198 4.13746 12.1479C3.95774 11.976 3.85677 11.7429 3.85677 11.4998C3.85677 11.2566 3.95774 11.0235 4.13746 10.8516C4.31718 10.6797 4.56094 10.5831 4.8151 10.5831Z" fill="black" />
</svg>
