<svg width="25" height="24" viewBox="0 0 25 24" fill="none" xmlns="http://www.w3.org/2000/svg">
    <g clip-path="url(#clip0_259_3156)">
        <path
            d="M7.625 14C7.625 14.2652 7.51964 14.5196 7.33211 14.7071C7.14457 14.8946 6.89022 15 6.625 15H5.625C5.35978 15 5.10543 14.8946 4.91789 14.7071C4.73036 14.5196 4.625 14.2652 4.625 14C4.625 13.7348 4.73036 13.4804 4.91789 13.2929C5.10543 13.1054 5.35978 13 5.625 13H6.625C6.89022 13 7.14457 13.1054 7.33211 13.2929C7.51964 13.4804 7.625 13.7348 7.625 14ZM11.625 13H10.625C10.3598 13 10.1054 13.1054 9.91789 13.2929C9.73036 13.4804 9.625 13.7348 9.625 14C9.625 14.2652 9.73036 14.5196 9.91789 14.7071C10.1054 14.8946 10.3598 15 10.625 15H11.625C11.8902 15 12.1446 14.8946 12.3321 14.7071C12.5196 14.5196 12.625 14.2652 12.625 14C12.625 13.7348 12.5196 13.4804 12.3321 13.2929C12.1446 13.1054 11.8902 13 11.625 13ZM6.625 17H5.625C5.35978 17 5.10543 17.1054 4.91789 17.2929C4.73036 17.4804 4.625 17.7348 4.625 18C4.625 18.2652 4.73036 18.5196 4.91789 18.7071C5.10543 18.8946 5.35978 19 5.625 19H6.625C6.89022 19 7.14457 18.8946 7.33211 18.7071C7.51964 18.5196 7.625 18.2652 7.625 18C7.625 17.7348 7.51964 17.4804 7.33211 17.2929C7.14457 17.1054 6.89022 17 6.625 17ZM11.625 17H10.625C10.3598 17 10.1054 17.1054 9.91789 17.2929C9.73036 17.4804 9.625 17.7348 9.625 18C9.625 18.2652 9.73036 18.5196 9.91789 18.7071C10.1054 18.8946 10.3598 19 10.625 19H11.625C11.8902 19 12.1446 18.8946 12.3321 18.7071C12.5196 18.5196 12.625 18.2652 12.625 18C12.625 17.7348 12.5196 17.4804 12.3321 17.2929C12.1446 17.1054 11.8902 17 11.625 17ZM6.625 5H5.625C5.35978 5 5.10543 5.10536 4.91789 5.29289C4.73036 5.48043 4.625 5.73478 4.625 6C4.625 6.26522 4.73036 6.51957 4.91789 6.70711C5.10543 6.89464 5.35978 7 5.625 7H6.625C6.89022 7 7.14457 6.89464 7.33211 6.70711C7.51964 6.51957 7.625 6.26522 7.625 6C7.625 5.73478 7.51964 5.48043 7.33211 5.29289C7.14457 5.10536 6.89022 5 6.625 5ZM11.625 5H10.625C10.3598 5 10.1054 5.10536 9.91789 5.29289C9.73036 5.48043 9.625 5.73478 9.625 6C9.625 6.26522 9.73036 6.51957 9.91789 6.70711C10.1054 6.89464 10.3598 7 10.625 7H11.625C11.8902 7 12.1446 6.89464 12.3321 6.70711C12.5196 6.51957 12.625 6.26522 12.625 6C12.625 5.73478 12.5196 5.48043 12.3321 5.29289C12.1446 5.10536 11.8902 5 11.625 5ZM6.625 9H5.625C5.35978 9 5.10543 9.10536 4.91789 9.29289C4.73036 9.48043 4.625 9.73478 4.625 10C4.625 10.2652 4.73036 10.5196 4.91789 10.7071C5.10543 10.8946 5.35978 11 5.625 11H6.625C6.89022 11 7.14457 10.8946 7.33211 10.7071C7.51964 10.5196 7.625 10.2652 7.625 10C7.625 9.73478 7.51964 9.48043 7.33211 9.29289C7.14457 9.10536 6.89022 9 6.625 9ZM11.625 9H10.625C10.3598 9 10.1054 9.10536 9.91789 9.29289C9.73036 9.48043 9.625 9.73478 9.625 10C9.625 10.2652 9.73036 10.5196 9.91789 10.7071C10.1054 10.8946 10.3598 11 10.625 11H11.625C11.8902 11 12.1446 10.8946 12.3321 10.7071C12.5196 10.5196 12.625 10.2652 12.625 10C12.625 9.73478 12.5196 9.48043 12.3321 9.29289C12.1446 9.10536 11.8902 9 11.625 9ZM24.625 10V19C24.6234 20.3256 24.0961 21.5964 23.1588 22.5338C22.2214 23.4711 20.9506 23.9984 19.625 24H5.625C4.29941 23.9984 3.02856 23.4711 2.09122 22.5338C1.15388 21.5964 0.626588 20.3256 0.625 19L0.625 5C0.626588 3.67441 1.15388 2.40356 2.09122 1.46622C3.02856 0.528882 4.29941 0.00158786 5.625 0L11.625 0C12.9506 0.00158786 14.2214 0.528882 15.1588 1.46622C16.0961 2.40356 16.6234 3.67441 16.625 5H19.625C20.9506 5.00159 22.2214 5.52888 23.1588 6.46622C24.0961 7.40356 24.6234 8.67441 24.625 10ZM5.625 22H14.625V5C14.625 4.20435 14.3089 3.44129 13.7463 2.87868C13.1837 2.31607 12.4206 2 11.625 2H5.625C4.82935 2 4.06629 2.31607 3.50368 2.87868C2.94107 3.44129 2.625 4.20435 2.625 5V19C2.625 19.7956 2.94107 20.5587 3.50368 21.1213C4.06629 21.6839 4.82935 22 5.625 22ZM22.625 10C22.625 9.20435 22.3089 8.44129 21.7463 7.87868C21.1837 7.31607 20.4206 7 19.625 7H16.625V22H19.625C20.4206 22 21.1837 21.6839 21.7463 21.1213C22.3089 20.5587 22.625 19.7956 22.625 19V10ZM19.625 13C19.4272 13 19.2339 13.0586 19.0694 13.1685C18.905 13.2784 18.7768 13.4346 18.7011 13.6173C18.6254 13.8 18.6056 14.0011 18.6442 14.1951C18.6828 14.3891 18.778 14.5673 18.9179 14.7071C19.0577 14.847 19.2359 14.9422 19.4299 14.9808C19.6239 15.0194 19.825 14.9996 20.0077 14.9239C20.1904 14.8482 20.3466 14.72 20.4565 14.5556C20.5664 14.3911 20.625 14.1978 20.625 14C20.625 13.7348 20.5196 13.4804 20.3321 13.2929C20.1446 13.1054 19.8902 13 19.625 13ZM19.625 17C19.4272 17 19.2339 17.0586 19.0694 17.1685C18.905 17.2784 18.7768 17.4346 18.7011 17.6173C18.6254 17.8 18.6056 18.0011 18.6442 18.1951C18.6828 18.3891 18.778 18.5673 18.9179 18.7071C19.0577 18.847 19.2359 18.9422 19.4299 18.9808C19.6239 19.0194 19.825 18.9996 20.0077 18.9239C20.1904 18.8482 20.3466 18.72 20.4565 18.5556C20.5664 18.3911 20.625 18.1978 20.625 18C20.625 17.7348 20.5196 17.4804 20.3321 17.2929C20.1446 17.1054 19.8902 17 19.625 17ZM19.625 9C19.4272 9 19.2339 9.05865 19.0694 9.16853C18.905 9.27841 18.7768 9.43459 18.7011 9.61732C18.6254 9.80004 18.6056 10.0011 18.6442 10.1951C18.6828 10.3891 18.778 10.5673 18.9179 10.7071C19.0577 10.847 19.2359 10.9422 19.4299 10.9808C19.6239 11.0194 19.825 10.9996 20.0077 10.9239C20.1904 10.8482 20.3466 10.72 20.4565 10.5556C20.5664 10.3911 20.625 10.1978 20.625 10C20.625 9.73478 20.5196 9.48043 20.3321 9.29289C20.1446 9.10536 19.8902 9 19.625 9Z" />
    </g>
    <defs>
        <clipPath id="clip0_259_3156">
            <rect width="24" height="24" fill="white" transform="translate(0.625)" />
        </clipPath>
    </defs>
</svg>