<svg width="20" height="21" viewBox="0 0 20 21" fill="none" xmlns="http://www.w3.org/2000/svg">
    <g clip-path="url(#clip0_1_24508)">
        <path
            d="M15.8333 2.38737H15V1.55404C15 1.33302 14.9122 1.12106 14.7559 0.964781C14.5996 0.808501 14.3877 0.720703 14.1667 0.720703C13.9457 0.720703 13.7337 0.808501 13.5774 0.964781C13.4211 1.12106 13.3333 1.33302 13.3333 1.55404V2.38737H6.66667V1.55404C6.66667 1.33302 6.57887 1.12106 6.42259 0.964781C6.26631 0.808501 6.05435 0.720703 5.83333 0.720703C5.61232 0.720703 5.40036 0.808501 5.24408 0.964781C5.0878 1.12106 5 1.33302 5 1.55404V2.38737H4.16667C3.062 2.38869 2.00296 2.8281 1.22185 3.60922C0.440735 4.39033 0.00132321 5.44937 0 6.55404L0 16.554C0.00132321 17.6587 0.440735 18.7177 1.22185 19.4989C2.00296 20.28 3.062 20.7194 4.16667 20.7207H15.8333C16.938 20.7194 17.997 20.28 18.7782 19.4989C19.5593 18.7177 19.9987 17.6587 20 16.554V6.55404C19.9987 5.44937 19.5593 4.39033 18.7782 3.60922C17.997 2.8281 16.938 2.38869 15.8333 2.38737ZM1.66667 6.55404C1.66667 5.891 1.93006 5.25511 2.3989 4.78627C2.86774 4.31743 3.50363 4.05404 4.16667 4.05404H15.8333C16.4964 4.05404 17.1323 4.31743 17.6011 4.78627C18.0699 5.25511 18.3333 5.891 18.3333 6.55404V7.38737H1.66667V6.55404ZM15.8333 19.054H4.16667C3.50363 19.054 2.86774 18.7906 2.3989 18.3218C1.93006 17.853 1.66667 17.2171 1.66667 16.554V9.05404H18.3333V16.554C18.3333 17.2171 18.0699 17.853 17.6011 18.3218C17.1323 18.7906 16.4964 19.054 15.8333 19.054Z"
            fill="#767676" />
        <path
            d="M10 14.4707C10.6904 14.4707 11.25 13.9111 11.25 13.2207C11.25 12.5303 10.6904 11.9707 10 11.9707C9.30964 11.9707 8.75 12.5303 8.75 13.2207C8.75 13.9111 9.30964 14.4707 10 14.4707Z"
            fill="#767676" />
        <path
            d="M5.83398 14.4707C6.52434 14.4707 7.08398 13.9111 7.08398 13.2207C7.08398 12.5303 6.52434 11.9707 5.83398 11.9707C5.14363 11.9707 4.58398 12.5303 4.58398 13.2207C4.58398 13.9111 5.14363 14.4707 5.83398 14.4707Z"
            fill="#767676" />
        <path
            d="M14.166 14.4707C14.8564 14.4707 15.416 13.9111 15.416 13.2207C15.416 12.5303 14.8564 11.9707 14.166 11.9707C13.4757 11.9707 12.916 12.5303 12.916 13.2207C12.916 13.9111 13.4757 14.4707 14.166 14.4707Z"
            fill="#767676" />
    </g>
    <defs>
        <clipPath id="clip0_1_24508">
            <rect width="20" height="20" fill="white" transform="translate(0 0.720703)" />
        </clipPath>
    </defs>
</svg>