<svg width="24" height="25" viewBox="0 0 24 25" fill="none" xmlns="http://www.w3.org/2000/svg">
    <g clip-path="url(#clip0_1_5429)">
        <path
            d="M15.9995 8.49982C15.8119 8.31235 15.5576 8.20703 15.2925 8.20703C15.0273 8.20703 14.773 8.31235 14.5855 8.49982L11.9995 11.0858L9.41346 8.49982C9.22486 8.31766 8.97226 8.21687 8.71006 8.21914C8.44786 8.22142 8.19705 8.32659 8.01164 8.512C7.82623 8.69741 7.72107 8.94822 7.71879 9.21042C7.71651 9.47261 7.8173 9.72522 7.99946 9.91382L10.5855 12.4998L7.99946 15.0858C7.8173 15.2744 7.71651 15.527 7.71879 15.7892C7.72107 16.0514 7.82623 16.3022 8.01164 16.4876C8.19705 16.673 8.44786 16.7782 8.71006 16.7805C8.97226 16.7828 9.22486 16.682 9.41346 16.4998L11.9995 13.9138L14.5855 16.4998C14.7741 16.682 15.0267 16.7828 15.2889 16.7805C15.5511 16.7782 15.8019 16.673 15.9873 16.4876C16.1727 16.3022 16.2779 16.0514 16.2801 15.7892C16.2824 15.527 16.1816 15.2744 15.9995 15.0858L13.4135 12.4998L15.9995 9.91382C16.1869 9.72629 16.2922 9.47198 16.2922 9.20682C16.2922 8.94165 16.1869 8.68735 15.9995 8.49982Z" />
        <path
            d="M12 0.5C9.62663 0.5 7.30655 1.20379 5.33316 2.52236C3.35977 3.84094 1.8217 5.71509 0.913451 7.9078C0.00519943 10.1005 -0.232441 12.5133 0.230582 14.8411C0.693605 17.1689 1.83649 19.3071 3.51472 20.9853C5.19295 22.6635 7.33115 23.8064 9.65892 24.2694C11.9867 24.7324 14.3995 24.4948 16.5922 23.5866C18.7849 22.6783 20.6591 21.1402 21.9776 19.1668C23.2962 17.1935 24 14.8734 24 12.5C23.9966 9.31846 22.7312 6.26821 20.4815 4.01852C18.2318 1.76883 15.1815 0.503441 12 0.5ZM12 22.5C10.0222 22.5 8.08879 21.9135 6.4443 20.8147C4.79981 19.7159 3.51809 18.1541 2.76121 16.3268C2.00433 14.4996 1.8063 12.4889 2.19215 10.5491C2.578 8.60929 3.53041 6.82746 4.92894 5.42893C6.32746 4.03041 8.10929 3.078 10.0491 2.69215C11.9889 2.3063 13.9996 2.50433 15.8268 3.2612C17.6541 4.01808 19.2159 5.29981 20.3147 6.9443C21.4135 8.58879 22 10.5222 22 12.5C21.9971 15.1513 20.9426 17.6931 19.0679 19.5679C17.1931 21.4426 14.6513 22.4971 12 22.5Z" />
    </g>
    <defs>
        <clipPath id="clip0_1_5429">
            <rect width="24" height="24" fill="white" transform="translate(0 0.5)" />
        </clipPath>
    </defs>
</svg>