<svg width="25" height="24" viewBox="0 0 25 24" fill="none" xmlns="http://www.w3.org/2000/svg">
<g clip-path="url(#clip0_1323_433)">
<path d="M24.5 8.4998C24.5 8.10198 24.342 7.72045 24.0607 7.43914C23.7794 7.15784 23.3978 6.9998 23 6.9998C23 6.9998 22.416 6.9998 22.375 7.0078C21.6272 5.62234 20.7705 4.2985 19.813 3.0488C19.3134 2.3991 18.621 1.92411 17.835 1.6918C16.074 0.835805 8.926 0.835805 7.165 1.6918C6.379 1.92411 5.68664 2.3991 5.187 3.0488C4.22945 4.2985 3.37275 5.62234 2.625 7.0078C2.584 6.9998 2 6.9998 2 6.9998C1.60218 6.9998 1.22064 7.15784 0.93934 7.43914C0.658035 7.72045 0.5 8.10198 0.5 8.4998L0.5 14.9998C0.500193 15.7018 0.68511 16.3913 1.03617 16.9992C1.38724 17.607 1.89208 18.1118 2.5 18.4628V19.9998C2.5 20.7955 2.81607 21.5585 3.37868 22.1211C3.94129 22.6837 4.70435 22.9998 5.5 22.9998C6.29565 22.9998 7.05871 22.6837 7.62132 22.1211C8.18393 21.5585 8.5 20.7955 8.5 19.9998V18.9998H16.5V19.9998C16.5 20.7955 16.8161 21.5585 17.3787 22.1211C17.9413 22.6837 18.7044 22.9998 19.5 22.9998C20.2956 22.9998 21.0587 22.6837 21.6213 22.1211C22.1839 21.5585 22.5 20.7955 22.5 19.9998V18.4628C23.1079 18.1118 23.6128 17.607 23.9638 16.9992C24.3149 16.3913 24.4998 15.7018 24.5 14.9998V8.4998ZM6.774 4.2658C7.01898 3.94987 7.35736 3.71927 7.741 3.6068C9.26 2.8558 15.741 2.8558 17.259 3.6068C17.6426 3.71927 17.981 3.94987 18.226 4.2658C19.7446 6.25706 20.9953 8.43903 21.946 10.7558C15.6818 9.8418 9.31817 9.8418 3.054 10.7558C4.0047 8.43903 5.25538 6.25706 6.774 4.2658ZM6.5 19.9998C6.5 20.265 6.39464 20.5194 6.20711 20.7069C6.01957 20.8944 5.76522 20.9998 5.5 20.9998C5.23478 20.9998 4.98043 20.8944 4.79289 20.7069C4.60536 20.5194 4.5 20.265 4.5 19.9998V18.9998H6.5V19.9998ZM20.5 19.9998C20.5 20.265 20.3946 20.5194 20.2071 20.7069C20.0196 20.8944 19.7652 20.9998 19.5 20.9998C19.2348 20.9998 18.9804 20.8944 18.7929 20.7069C18.6054 20.5194 18.5 20.265 18.5 19.9998V18.9998H20.5V19.9998ZM20.5 16.9998H4.5C3.96957 16.9998 3.46086 16.7891 3.08579 16.414C2.71071 16.0389 2.5 15.5302 2.5 14.9998V12.8568C5.81076 12.3507 9.1514 12.0644 12.5 11.9998C15.8486 12.0644 19.1892 12.3507 22.5 12.8568V14.9998C22.5 15.5302 22.2893 16.0389 21.9142 16.414C21.5391 16.7891 21.0304 16.9998 20.5 16.9998ZM6.5 14.9998C6.5 15.265 6.39464 15.5194 6.20711 15.7069C6.01957 15.8944 5.76522 15.9998 5.5 15.9998C5.23478 15.9998 4.98043 15.8944 4.79289 15.7069C4.60536 15.5194 4.5 15.265 4.5 14.9998C4.5 14.7346 4.60536 14.4802 4.79289 14.2927C4.98043 14.1052 5.23478 13.9998 5.5 13.9998C5.76522 13.9998 6.01957 14.1052 6.20711 14.2927C6.39464 14.4802 6.5 14.7346 6.5 14.9998ZM20.5 14.9998C20.5 15.265 20.3946 15.5194 20.2071 15.7069C20.0196 15.8944 19.7652 15.9998 19.5 15.9998C19.2348 15.9998 18.9804 15.8944 18.7929 15.7069C18.6054 15.5194 18.5 15.265 18.5 14.9998C18.5 14.7346 18.6054 14.4802 18.7929 14.2927C18.9804 14.1052 19.2348 13.9998 19.5 13.9998C19.7652 13.9998 20.0196 14.1052 20.2071 14.2927C20.3946 14.4802 20.5 14.7346 20.5 14.9998Z"/>
</g>
<defs>
<clipPath id="clip0_1323_433">
<rect width="24" height="24" fill="white" transform="translate(0.5)"/>
</clipPath>
</defs>
</svg>
