<svg width="9" height="14" viewBox="0 0 9 14" fill="none" xmlns="http://www.w3.org/2000/svg">
    <path
        d="M7.79014 13.71C7.88387 13.617 7.95826 13.5064 8.00903 13.3846C8.0598 13.2627 8.08594 13.132 8.08594 13C8.08594 12.868 8.0598 12.7373 8.00903 12.6154C7.95826 12.4936 7.88387 12.383 7.79014 12.29L3.21014 7.71C3.11641 7.61704 3.04202 7.50643 2.99125 7.38458C2.94048 7.26272 2.91434 7.13201 2.91434 7C2.91434 6.86799 2.94048 6.73728 2.99125 6.61542C3.04202 6.49356 3.11641 6.38296 3.21014 6.29L7.79014 1.71C7.88387 1.61704 7.95826 1.50644 8.00903 1.38458C8.0598 1.26272 8.08594 1.13201 8.08594 0.999999C8.08594 0.867987 8.0598 0.737282 8.00903 0.615422C7.95826 0.493563 7.88387 0.382962 7.79014 0.289999C7.60278 0.103748 7.34932 -0.000793489 7.08514 -0.000793501C6.82095 -0.000793512 6.5675 0.103748 6.38014 0.289999L1.79014 4.88C1.22834 5.4425 0.912778 6.205 0.912778 7C0.912778 7.795 1.22834 8.5575 1.79014 9.12L6.38014 13.71C6.5675 13.8962 6.82095 14.0008 7.08514 14.0008C7.34932 14.0008 7.60278 13.8962 7.79014 13.71Z"
        fill="black" />
</svg>