<svg width="25" height="24" viewBox="0 0 25 24" fill="none" xmlns="http://www.w3.org/2000/svg">
<g clip-path="url(#clip0_1094_35220)">
<path d="M18.3781 9.098C18.7651 9.492 18.7591 10.125 18.3641 10.512L13.9381 14.857C13.1551 15.625 12.1471 16.008 11.1381 16.008C10.1401 16.008 9.14206 15.632 8.36206 14.879L6.46306 13.012C6.06906 12.625 6.06406 11.992 6.45106 11.598C6.83706 11.203 7.47206 11.198 7.86506 11.586L9.75806 13.447C10.5341 14.197 11.7591 14.193 12.5391 13.429L16.9641 9.085C17.3571 8.697 17.9881 8.704 18.3781 9.098ZM24.1641 12C24.1641 18.617 18.7811 24 12.1641 24C5.54706 24 0.164062 18.617 0.164062 12C0.164062 5.383 5.54706 0 12.1641 0C18.7811 0 24.1641 5.383 24.1641 12ZM22.1641 12C22.1641 6.486 17.6781 2 12.1641 2C6.65006 2 2.16406 6.486 2.16406 12C2.16406 17.514 6.65006 22 12.1641 22C17.6781 22 22.1641 17.514 22.1641 12Z" />
</g>
<defs>
<clipPath id="clip0_1094_35220">
<rect width="24" height="24" fill="white" transform="translate(0.164062)"/>
</clipPath>
</defs>
</svg>
