<svg width="16" height="16" viewBox="0 0 16 16" fill="none" xmlns="http://www.w3.org/2000/svg">
<g clip-path="url(#clip0_1643_6833)">
<path d="M8.04184 16.0001C4.12261 15.9964 0.791832 13.1943 0.120678 9.37228C-0.561382 5.4921 1.70564 1.69188 5.45719 0.420746C6.27103 0.144986 7.10713 0.0105132 7.96414 6.42751e-05C8.30903 -0.00402443 8.57894 0.187236 8.68437 0.493889C8.78388 0.782824 8.69391 1.09811 8.45489 1.29209C8.30721 1.41203 8.1359 1.45519 7.94778 1.45791C6.43689 1.47745 5.07913 1.94447 3.90586 2.89623C2.46994 4.06105 1.64338 5.57251 1.48661 7.41879C1.25487 10.1437 2.62944 12.6028 5.04005 13.8367C8.69527 15.7075 13.1916 13.7372 14.2999 9.77751C14.463 9.1951 14.5348 8.60042 14.5453 7.99575C14.5543 7.45786 15.0928 7.11668 15.5704 7.33929C15.878 7.48239 16.0053 7.73952 15.9998 8.0698C15.978 9.40453 15.6722 10.6698 15.0138 11.8323C13.7905 13.9939 11.9579 15.3386 9.52183 15.8497C9.02017 15.9551 8.51078 15.9914 8.04184 16.0001Z" fill="#F71E1E"/>
<path d="M7.27427 5.81458C7.27427 5.08816 7.26746 4.36127 7.27655 3.63485C7.28336 3.09605 7.81865 2.75487 8.29714 2.97702C8.58886 3.1124 8.72428 3.35227 8.72382 3.67301C8.72291 4.50756 8.72382 5.34211 8.72382 6.1762C8.72382 6.58507 8.72882 6.99394 8.72064 7.40236C8.71837 7.51866 8.76154 7.57181 8.85969 7.62042C9.64263 8.00658 10.4242 8.39546 11.204 8.78798C11.5107 8.94244 11.6738 9.23637 11.632 9.53394C11.5579 10.0582 11.0417 10.329 10.5564 10.0905C9.89482 9.76518 9.2373 9.43217 8.57796 9.10281C8.29895 8.96334 8.02222 8.81978 7.74049 8.6853C7.41923 8.53175 7.26791 8.28416 7.27155 7.92662C7.27791 7.22291 7.27337 6.51875 7.27337 5.81504H7.27427V5.81458Z" fill="#F71E1E"/>
<path d="M14.7291 5.95669C14.3206 5.95851 13.9884 5.62596 13.9834 5.21073C13.9789 4.8014 14.3043 4.47385 14.7128 4.47658C15.1217 4.47931 15.4534 4.8173 15.4534 5.23072C15.4534 5.62732 15.1267 5.95487 14.7291 5.95669Z" fill="#F71E1E"/>
<path d="M11.5202 1.29329C11.5184 1.69808 11.1985 2.01563 10.7936 2.01472C10.3764 2.01381 10.0406 1.68218 10.042 1.27285C10.0438 0.87443 10.3705 0.548242 10.7695 0.546879C11.1807 0.545516 11.5215 0.884878 11.5202 1.29329Z" fill="#F71E1E"/>
<path d="M13.8759 2.87675C13.8728 3.27653 13.5447 3.60181 13.1471 3.59954C12.7458 3.59727 12.3973 3.24428 12.4014 2.84495C12.4055 2.44834 12.7377 2.12034 13.133 2.12306C13.5379 2.12579 13.8796 2.47242 13.8759 2.8772V2.87675Z" fill="#F71E1E"/>
</g>
<defs>
<clipPath id="clip0_1643_6833">
<rect width="16" height="16" fill="white"/>
</clipPath>
</defs>
</svg>
