<svg width="24" height="25" viewBox="0 0 24 25" fill="none" xmlns="http://www.w3.org/2000/svg">
    <g clip-path="url(#clip0_259_8308)">
        <path
            d="M12 12.5C15.309 12.5 18 9.809 18 6.5C18 3.191 15.309 0.5 12 0.5C8.69096 0.5 5.99996 3.191 5.99996 6.5C5.99996 9.809 8.69096 12.5 12 12.5ZM12 3.5C13.654 3.5 15 4.846 15 6.5C15 8.154 13.654 9.5 12 9.5C10.346 9.5 8.99996 8.154 8.99996 6.5C8.99996 4.846 10.346 3.5 12 3.5ZM16.934 22.786C17.053 23.606 16.577 24.5 15.448 24.5C14.715 24.5 14.073 23.961 13.966 23.214C13.824 22.236 12.98 21.5 12.001 21.5C11.022 21.5 10.177 22.237 10.036 23.214C9.91796 24.034 9.15796 24.603 8.33696 24.484C7.51696 24.366 6.94796 23.605 7.06696 22.785C7.41996 20.342 9.54096 18.499 12.001 18.499C14.461 18.499 16.583 20.341 16.935 22.785L16.934 22.786ZM21.972 22.913C22.02 23.74 21.389 24.45 20.562 24.498C20.532 24.499 20.502 24.5 20.473 24.5C19.684 24.5 19.023 23.885 18.977 23.087C18.762 19.393 15.697 16.5 12 16.5C8.30296 16.5 5.23796 19.394 5.02296 23.087C4.97496 23.914 4.26296 24.54 3.43796 24.497C2.61096 24.449 1.97996 23.739 2.02796 22.912C2.33596 17.634 6.71596 13.499 12 13.499C17.284 13.499 21.664 17.634 21.972 22.913Z"
            fill="#E30101" />
    </g>
    <defs>
        <clipPath id="clip0_259_8308">
            <rect width="24" height="24" fill="white" transform="translate(0 0.5)" />
        </clipPath>
    </defs>
</svg>