<svg width="774" height="633" viewBox="0 0 774 633" fill="none" xmlns="http://www.w3.org/2000/svg">
    <g id="No Results">
        <g id="circle">
            <path id="Stroke 1" d="M26.9238 291.381V297.916" stroke="#D2D8DF" stroke-width="2.921" stroke-linecap="round"/>
            <g id="Group 8">
                <path id="Stroke 2" d="M12.2461 294.923L17.5865 300.42" stroke="#D2D8DF" stroke-width="2.921" stroke-linecap="round"/>
                <path id="Stroke 4" d="M6 309.558H13.5512" stroke="#D2D8DF" stroke-width="2.921" stroke-linecap="round"/>
                <path id="Stroke 6" d="M11.6353 324.451L16.9756 318.954" stroke="#D2D8DF" stroke-width="2.921" stroke-linecap="round"/>
            </g>
            <path id="Stroke 9" d="M26.9238 326.238V319.702" stroke="#D2D8DF" stroke-width="2.921" stroke-linecap="round"/>
            <path id="Stroke 10" d="M37.8155 321.879L33.4585 317.522" stroke="#D2D8DF" stroke-width="2.921" stroke-linecap="round"/>
            <path id="Stroke 11" d="M46.5301 310.988H39.9946" stroke="#D2D8DF" stroke-width="2.921" stroke-linecap="round"/>
            <path id="Stroke 12" d="M42.1719 295.739L37.8149 300.096" stroke="#D2D8DF" stroke-width="2.921" stroke-linecap="round"/>
            <path id="Stroke 13" d="M377.659 6V10.357" stroke="#D2D8DF" stroke-width="2.921" stroke-linecap="round"/>
            <path id="Stroke 15" d="M364.588 19.0708H368.945" stroke="#D2D8DF" stroke-width="2.921" stroke-linecap="round"/>
            <path id="Stroke 16" d="M377.659 32.1421V27.7852" stroke="#D2D8DF" stroke-width="2.921" stroke-linecap="round"/>
            <path id="Stroke 17" d="M388.552 19.0708H384.195" stroke="#D2D8DF" stroke-width="2.921" stroke-linecap="round"/>
            <path id="Stroke 18" d="M124.956 188.993V195.528" stroke="#D2D8DF" stroke-width="2.921" stroke-linecap="round"/>
            <path id="Stroke 19" d="M105.349 208.6H111.884" stroke="#D2D8DF" stroke-width="2.921" stroke-linecap="round"/>
            <path id="Stroke 20" d="M124.956 226.026V219.491" stroke="#D2D8DF" stroke-width="2.921" stroke-linecap="round"/>
            <path id="Stroke 21" d="M142.382 208.6H135.847" stroke="#D2D8DF" stroke-width="2.921" stroke-linecap="round"/>
            <g id="Group 42">
                <path id="Stroke 22" d="M593.882 426.53C599.088 426.53 603.311 430.754 603.311 435.961C603.311 441.171 599.088 445.392 593.882 445.392C588.676 445.392 584.454 441.171 584.454 435.961" stroke="#D2D8DF" stroke-width="2.921" stroke-linecap="round"/>
                <path id="Fill 26" fill-rule="evenodd" clip-rule="evenodd" d="M637.033 340.97C642.631 339.224 651.212 332.377 653.199 325.011C655 331.522 662.551 339.224 669.365 339.806C661.695 342.522 654.362 350.59 653.199 356.927C652.407 350.468 642.265 341.912 637.033 340.97Z" fill="#EBECEE"/>
                <path id="Fill 28" fill-rule="evenodd" clip-rule="evenodd" d="M62.373 423.627C65.1731 422.754 69.462 419.331 70.4551 415.648C71.3558 418.902 75.1305 422.754 78.5372 423.046C74.7033 424.402 71.0377 428.436 70.4551 431.605C70.0593 428.375 64.9882 424.097 62.373 423.627Z" fill="#EBECEE"/>
                <path id="Fill 30" fill-rule="evenodd" clip-rule="evenodd" d="M114.335 120.582C114.335 124.622 111.062 127.895 107.024 127.895C102.985 127.895 99.7134 124.622 99.7134 120.582C99.7134 116.543 102.985 113.269 107.024 113.269C111.062 113.269 114.335 116.543 114.335 120.582Z" fill="#D1D8DF"/>
                <path id="Fill 32" fill-rule="evenodd" clip-rule="evenodd" d="M602.52 140.218C602.52 146.968 597.048 152.44 590.301 152.44C583.551 152.44 578.08 146.968 578.08 140.218C578.08 133.467 583.551 127.995 590.301 127.995C597.048 127.995 602.52 133.467 602.52 140.218Z" fill="#EBECEE"/>
                <path id="Fill 34" fill-rule="evenodd" clip-rule="evenodd" d="M771.779 107.102C771.779 112.457 767.44 116.797 762.088 116.797C756.734 116.797 752.395 112.457 752.395 107.102C752.395 101.746 756.734 97.4062 762.088 97.4062C767.44 97.4062 771.779 101.746 771.779 107.102Z" fill="#EBECEE"/>
                <path id="Stroke 36" fill-rule="evenodd" clip-rule="evenodd" d="M250.967 559.917C250.967 563.293 248.231 566.029 244.856 566.029C241.483 566.029 238.748 563.293 238.748 559.917C238.748 556.541 241.483 553.805 244.856 553.805C248.231 553.805 250.967 556.541 250.967 559.917Z" stroke="#D2D8DF" stroke-width="2.921" stroke-linecap="round"/>
                <path id="Stroke 38" fill-rule="evenodd" clip-rule="evenodd" d="M247.331 73.6013C247.331 77.6416 244.058 80.9141 240.02 80.9141C235.983 80.9141 232.709 77.6416 232.709 73.6013C232.709 69.5629 235.983 66.2886 240.02 66.2886C244.058 66.2886 247.331 69.5629 247.331 73.6013Z" stroke="#D2D8DF" stroke-width="2.921" stroke-linecap="round"/>
                <path id="Stroke 40" fill-rule="evenodd" clip-rule="evenodd" d="M433.817 627.599C429.145 629.377 423.917 627.03 422.139 622.359C420.362 617.686 422.707 612.454 427.381 610.678C432.051 608.9 437.279 611.246 439.056 615.919C440.835 620.592 438.489 625.822 433.817 627.599Z" stroke="#D2D8DF" stroke-width="2.921" stroke-linecap="round"/>
            </g>
        </g>
        <g id="search">
            <g id="documents">
                <path id="Fill 1" fill-rule="evenodd" clip-rule="evenodd" d="M431.036 454.767H252.39C239.816 454.767 229.523 444.444 229.523 431.828V177.071C229.523 164.454 239.816 154.137 252.39 154.137H431.036C443.615 154.137 453.907 164.454 453.907 177.071V431.828C453.907 444.444 443.615 454.767 431.036 454.767Z" fill="#E0E2EE"/>
                <path id="Fill 3" fill-rule="evenodd" clip-rule="evenodd" d="M415.787 465.66H237.141C224.567 465.66 214.274 455.337 214.274 442.721V187.963C214.274 175.347 224.567 165.029 237.141 165.029H415.787C428.366 165.029 438.658 175.347 438.658 187.963V442.721C438.658 455.337 428.366 465.66 415.787 465.66Z" fill="#E8EBF2"/>
                <path id="Fill 5" fill-rule="evenodd" clip-rule="evenodd" d="M400.954 474.259H221.939C209.339 474.259 199.025 463.979 199.025 451.415V197.712C199.025 185.148 209.339 174.873 221.939 174.873H400.954C413.559 174.873 423.873 185.148 423.873 197.712V451.415C423.873 463.979 413.559 474.259 400.954 474.259Z" fill="#D8DBEA"/>
                <path id="Fill 8" fill-rule="evenodd" clip-rule="evenodd" d="M400.954 474.259H221.939C209.339 474.259 199.025 463.979 199.025 451.415V197.712C199.025 185.148 209.339 174.873 221.939 174.873H400.954C413.559 174.873 423.873 185.148 423.873 197.712V451.415C423.873 463.979 413.559 474.259 400.954 474.259Z" fill="#F1F2F7"/>
                <path id="Fill 11" fill-rule="evenodd" clip-rule="evenodd" d="M375.151 252.169H242.927C239.15 252.169 236.06 249.228 236.06 245.636C236.06 242.038 239.15 239.098 242.927 239.098H375.151C378.927 239.098 382.018 242.038 382.018 245.636C382.018 249.228 378.927 252.169 375.151 252.169Z" fill="#E0E2EE"/>
                <path id="Fill 13" fill-rule="evenodd" clip-rule="evenodd" d="M375.151 291.381H242.927C239.15 291.381 236.06 288.44 236.06 284.848C236.06 281.251 239.15 278.31 242.927 278.31H375.151C378.927 278.31 382.018 281.251 382.018 284.848C382.018 288.44 378.927 291.381 375.151 291.381Z" fill="#E0E2EE"/>
                <path id="Fill 15" fill-rule="evenodd" clip-rule="evenodd" d="M375.151 330.593H242.927C239.15 330.593 236.06 327.653 236.06 324.06C236.06 320.468 239.15 317.522 242.927 317.522H375.151C378.927 317.522 382.018 320.468 382.018 324.06C382.018 327.653 378.927 330.593 375.151 330.593Z" fill="#E0E2EE"/>
                <path id="Fill 17" fill-rule="evenodd" clip-rule="evenodd" d="M375.151 369.807H242.927C239.15 369.807 236.06 366.867 236.06 363.274C236.06 359.677 239.15 356.736 242.927 356.736H375.151C378.927 356.736 382.018 359.677 382.018 363.274C382.018 366.867 378.927 369.807 375.151 369.807Z" fill="#E0E2EE"/>
                <path id="Fill 19" fill-rule="evenodd" clip-rule="evenodd" d="M311.946 409.02H242.956C239.164 409.02 236.06 406.079 236.06 402.487C236.06 398.889 239.164 395.949 242.956 395.949H311.946C315.738 395.949 318.842 398.889 318.842 402.487C318.842 406.079 315.738 409.02 311.946 409.02Z" fill="#E0E2EE"/>
            </g>
            <g id="search_2">
                <path id="Fill 21" fill-rule="evenodd" clip-rule="evenodd" d="M451.193 358.339C424.753 384.774 383.821 387.756 354.105 367.347C350.308 364.692 346.693 361.709 343.322 358.339C341.587 356.61 339.951 354.825 338.41 352.946C335.328 349.193 332.628 345.191 330.416 341.056C326.518 334.071 323.868 326.66 322.421 319C317.753 294.976 324.733 269.117 343.322 250.537C361.956 231.901 387.819 224.966 411.847 229.589C419.503 231.08 426.921 233.73 433.906 237.583C438.048 239.844 441.995 242.544 445.754 245.626C447.628 247.161 449.413 248.802 451.143 250.537C454.519 253.907 457.546 257.516 460.152 261.318C480.571 291.024 477.582 331.954 451.193 358.339Z" fill="white" fill-opacity="0.1"/>
                <path id="Fill 23" fill-rule="evenodd" clip-rule="evenodd" d="M443.793 353.133C416.287 380.645 371.71 380.64 344.198 353.133C316.722 325.657 316.722 281.075 344.234 253.568C371.71 226.092 416.287 226.092 443.763 253.568C471.27 281.075 471.27 325.657 443.793 353.133ZM457.91 239.435C422.603 204.128 365.388 204.128 330.081 239.435C294.779 274.737 294.748 331.988 330.05 367.295C362.184 399.419 412.55 402.316 447.975 375.94C451.435 373.361 454.768 370.469 457.946 367.295C461.12 364.117 464.012 360.785 466.586 357.324C492.962 321.894 490.039 271.564 457.91 239.435Z" fill="#E0E2EE"/>
                <path id="Fill 25" fill-rule="evenodd" clip-rule="evenodd" d="M596.862 500.387L595.379 501.869C585.573 511.681 569.514 511.681 559.702 501.869L469.154 411.321L506.313 374.162L596.862 464.71C606.673 474.522 606.673 490.575 596.862 500.387Z" fill="url(#paint0_linear_816_5472)"/>
                <path id="Fill 27" fill-rule="evenodd" clip-rule="evenodd" d="M468.54 354.557L495.297 381.314L476.301 400.305L449.549 373.547C453.08 370.915 456.475 367.964 459.723 364.726C462.961 361.488 465.912 358.087 468.54 354.557Z" fill="#E0E2EE"/>
                <path id="Fill 29" fill-rule="evenodd" clip-rule="evenodd" d="M595.507 463.597L558.584 500.514L551.937 493.862L588.855 456.945L595.507 463.597Z" fill="#EF545F"/>
                <path id="Fill 31" fill-rule="evenodd" clip-rule="evenodd" d="M508.368 375.441L470.434 413.375L464.798 407.74L502.731 369.806L508.368 375.441Z" fill="url(#paint1_linear_816_5472)"/>
                <path id="Fill 33" fill-rule="evenodd" clip-rule="evenodd" d="M425.586 244.104L332.557 337.128C329.053 330.849 326.671 324.186 325.375 317.299L405.756 236.918C412.638 238.263 419.306 240.641 425.586 244.104Z" fill="white" fill-opacity="0.5"/>
                <path id="Fill 35" fill-rule="evenodd" clip-rule="evenodd" d="M456.084 266.215L355.51 361.091C351.908 358.72 348.48 356.051 345.283 353.036C343.637 351.483 342.081 349.891 340.625 348.209L442.424 252.167C444.206 253.546 445.899 255.014 447.54 256.567C450.737 259.583 453.613 262.812 456.084 266.215Z" fill="white" fill-opacity="0.5"/>
            </g>
        </g>
    </g>
    <defs>
        <linearGradient id="paint0_linear_816_5472" x1="536.687" y1="306.629" x2="401.621" y2="441.695" gradientUnits="userSpaceOnUse">
            <stop stop-color="#FF8960"/>
            <stop offset="1" stop-color="#FF62A5"/>
        </linearGradient>
        <linearGradient id="paint1_linear_816_5472" x1="486.583" y1="348.021" x2="443.013" y2="391.59" gradientUnits="userSpaceOnUse">
            <stop stop-color="#FF404E"/>
            <stop offset="1" stop-color="#FF62A5"/>
        </linearGradient>
    </defs>
</svg>
