<svg width="21" height="21" viewBox="0 0 21 21" fill="none" xmlns="http://www.w3.org/2000/svg">
<g clip-path="url(#clip0_1_22967)">
<path d="M20.0583 8.34956C18.7658 6.24456 15.8258 2.71289 10.6658 2.71289C5.50581 2.71289 2.56581 6.24456 1.27331 8.34956C0.873754 8.99581 0.662109 9.74059 0.662109 10.5004C0.662109 11.2602 0.873754 12.005 1.27331 12.6512C2.56581 14.7562 5.50581 18.2879 10.6658 18.2879C15.8258 18.2879 18.7658 14.7562 20.0583 12.6512C20.4579 12.005 20.6695 11.2602 20.6695 10.5004C20.6695 9.74059 20.4579 8.99581 20.0583 8.34956ZM18.6375 11.7787C17.5275 13.5837 15.015 16.6212 10.6658 16.6212C6.31665 16.6212 3.80415 13.5837 2.69415 11.7787C2.45676 11.3946 2.33102 10.952 2.33102 10.5004C2.33102 10.0488 2.45676 9.60619 2.69415 9.22206C3.80415 7.41706 6.31665 4.37956 10.6658 4.37956C15.015 4.37956 17.5275 7.41372 18.6375 9.22206C18.8749 9.60619 19.0006 10.0488 19.0006 10.5004C19.0006 10.952 18.8749 11.3946 18.6375 11.7787Z" fill="black"/>
<path d="M10.6667 6.33301C9.84258 6.33301 9.037 6.57738 8.35179 7.03522C7.66659 7.49306 7.13254 8.1438 6.81717 8.90516C6.50181 9.66652 6.41929 10.5043 6.58006 11.3126C6.74083 12.1208 7.13767 12.8632 7.72039 13.446C8.30311 14.0287 9.04554 14.4255 9.85379 14.5863C10.662 14.7471 11.4998 14.6645 12.2612 14.3492C13.0225 14.0338 13.6733 13.4998 14.1311 12.8146C14.589 12.1293 14.8333 11.3238 14.8333 10.4997C14.832 9.39501 14.3926 8.33597 13.6115 7.55486C12.8304 6.77374 11.7713 6.33433 10.6667 6.33301ZM10.6667 12.9997C10.1722 12.9997 9.68887 12.8531 9.27774 12.5783C8.86662 12.3036 8.54619 11.9132 8.35697 11.4564C8.16775 10.9996 8.11824 10.4969 8.2147 10.0119C8.31117 9.527 8.54927 9.08154 8.8989 8.73191C9.24853 8.38228 9.69399 8.14417 10.1789 8.04771C10.6639 7.95125 11.1666 8.00076 11.6234 8.18998C12.0802 8.37919 12.4706 8.69963 12.7453 9.11075C13.02 9.52187 13.1667 10.0052 13.1667 10.4997C13.1667 11.1627 12.9033 11.7986 12.4344 12.2674C11.9656 12.7363 11.3297 12.9997 10.6667 12.9997Z" fill="black"/>
</g>
<defs>
<clipPath id="clip0_1_22967">
<rect width="20" height="20" fill="white" transform="translate(0.666016 0.5)"/>
</clipPath>
</defs>
</svg>
