<svg width="20" height="21" viewBox="0 0 20 21" fill="none" xmlns="http://www.w3.org/2000/svg">
    <g clip-path="url(#clip0_1_1299)">
        <path
            d="M19.3923 8.34956C18.0998 6.24456 15.1598 2.71289 9.9998 2.71289C4.8398 2.71289 1.8998 6.24456 0.607299 8.34956C0.207739 8.99581 -0.00390625 9.74059 -0.00390625 10.5004C-0.00390625 11.2602 0.207739 12.005 0.607299 12.6512C1.8998 14.7562 4.8398 18.2879 9.9998 18.2879C15.1598 18.2879 18.0998 14.7562 19.3923 12.6512C19.7919 12.005 20.0035 11.2602 20.0035 10.5004C20.0035 9.74059 19.7919 8.99581 19.3923 8.34956ZM17.9715 11.7787C16.8615 13.5837 14.349 16.6212 9.9998 16.6212C5.65063 16.6212 3.13813 13.5837 2.02813 11.7787C1.79074 11.3946 1.66501 10.952 1.66501 10.5004C1.66501 10.0488 1.79074 9.60619 2.02813 9.22206C3.13813 7.41706 5.65063 4.37956 9.9998 4.37956C14.349 4.37956 16.8615 7.41372 17.9715 9.22206C18.2089 9.60619 18.3346 10.0488 18.3346 10.5004C18.3346 10.952 18.2089 11.3946 17.9715 11.7787Z"
            fill="black" />
        <path
            d="M9.99968 6.33301C9.17559 6.33301 8.37001 6.57738 7.6848 7.03522C6.9996 7.49306 6.46554 8.1438 6.15018 8.90516C5.83481 9.66652 5.7523 10.5043 5.91307 11.3126C6.07384 12.1208 6.47068 12.8632 7.0534 13.446C7.63612 14.0287 8.37855 14.4255 9.1868 14.5863C9.99505 14.7471 10.8328 14.6645 11.5942 14.3492C12.3555 14.0338 13.0063 13.4998 13.4641 12.8146C13.922 12.1293 14.1663 11.3238 14.1663 10.4997C14.165 9.39501 13.7256 8.33597 12.9445 7.55486C12.1634 6.77374 11.1043 6.33433 9.99968 6.33301ZM9.99968 12.9997C9.50522 12.9997 9.02187 12.8531 8.61075 12.5783C8.19963 12.3036 7.8792 11.9132 7.68998 11.4564C7.50076 10.9996 7.45125 10.4969 7.54771 10.0119C7.64418 9.527 7.88228 9.08154 8.23191 8.73191C8.58154 8.38228 9.027 8.14417 9.51195 8.04771C9.9969 7.95125 10.4996 8.00076 10.9564 8.18998C11.4132 8.37919 11.8036 8.69963 12.0784 9.11075C12.3531 9.52187 12.4997 10.0052 12.4997 10.4997C12.4997 11.1627 12.2363 11.7986 11.7674 12.2674C11.2986 12.7363 10.6627 12.9997 9.99968 12.9997Z"
            fill="black" />
    </g>
    <defs>
        <clipPath id="clip0_1_1299">
            <rect width="20" height="20" fill="white" transform="translate(0 0.5)" />
        </clipPath>
    </defs>
</svg>