<svg width="25" height="25" viewBox="0 0 25 25" fill="none" xmlns="http://www.w3.org/2000/svg">
    <path
        d="M18.895 10.5C19.204 10.5 19.496 10.357 19.685 10.113C19.874 9.869 19.94 9.551 19.864 9.252C19.553 8.035 18.919 6.923 18.031 6.035L14.546 2.55C13.224 1.228 11.466 0.5 9.59603 0.5H5.08103C2.32503 0.5 0.0820312 2.743 0.0820312 5.5V19.5C0.0820312 22.257 2.32503 24.5 5.08203 24.5H8.08203C8.63403 24.5 9.08203 24.052 9.08203 23.5C9.08203 22.948 8.63403 22.5 8.08203 22.5H5.08203C3.42803 22.5 2.08203 21.154 2.08203 19.5V5.5C2.08203 3.846 3.42803 2.5 5.08203 2.5H9.59703C9.76003 2.5 9.92203 2.508 10.082 2.523V7.5C10.082 9.154 11.428 10.5 13.082 10.5H18.895ZM12.082 7.5V3.159C12.461 3.377 12.814 3.647 13.132 3.965L16.617 7.45C16.931 7.764 17.2 8.118 17.42 8.5H13.082C12.531 8.5 12.082 8.051 12.082 7.5ZM23.204 12.379C22.07 11.245 20.094 11.245 18.961 12.379L12.254 19.086C11.499 19.841 11.082 20.846 11.082 21.915V23.501C11.082 24.053 11.53 24.501 12.082 24.501H13.668C14.737 24.501 15.741 24.084 16.496 23.329L23.203 16.622C23.77 16.055 24.082 15.302 24.082 14.5C24.082 13.698 23.77 12.945 23.204 12.379ZM21.789 15.207L15.081 21.914C14.704 22.292 14.202 22.5 13.667 22.5H13.081V21.914C13.081 21.38 13.289 20.878 13.667 20.5L20.375 13.793C20.752 13.415 21.411 13.415 21.789 13.793C21.978 13.981 22.082 14.232 22.082 14.5C22.082 14.768 21.978 15.018 21.789 15.207Z" />
</svg>