<svg width="14" height="16" viewBox="0 0 14 16" fill="none" xmlns="http://www.w3.org/2000/svg">
    <path
        d="M12.3763 5.75917C11.8985 4.73317 11.2311 3.73242 10.3928 2.78477C10.2171 2.58611 9.91395 2.57408 9.72266 2.75264L7.51688 4.81136V0.499985C7.51688 0.139079 7.08173 -0.130577 6.75585 0.0665479C4.96438 1.15017 2.78829 3.3238 1.67385 5.64477C1.04073 6.9633 0.719727 8.32983 0.719727 9.70642C0.719695 13.1767 3.53616 16 6.99807 16C11.3479 16 15.0509 11.5028 12.3763 5.75917ZM5.54963 13.6083C5.54963 12.3956 6.52595 11.5056 6.99882 11.1456C7.4696 11.528 8.44648 12.4598 8.44648 13.6083C8.44648 14.4089 7.79673 15.0602 6.99804 15.0602C6.19935 15.0602 5.54963 14.4089 5.54963 13.6083ZM9.16957 14.5973C9.88626 13.0224 8.70032 11.119 7.26698 10.1737C7.11685 10.0748 6.9236 10.0705 6.7692 10.1628C5.27579 11.056 4.10841 13.0193 4.82654 14.5973C2.96076 13.7616 1.6572 11.8839 1.6572 9.70645C1.6572 6.29905 3.87626 3.33152 6.57938 1.32736V5.89095C6.57938 6.30045 7.0682 6.5142 7.36757 6.23486L10.004 3.7742C11.5538 5.65371 12.3389 7.64736 12.3389 9.70649C12.3389 11.8839 11.0354 13.7616 9.16957 14.5973Z"
        fill="currentColor" />
</svg>