<svg width="16" height="16" viewBox="0 0 16 16" fill="none" xmlns="http://www.w3.org/2000/svg">
    <g clip-path="url(#clip0_1_7990)">
        <path d="M7.99968 4.00134C7.47226 4.00134 6.95669 4.15774 6.51816 4.45076C6.07962 4.74377 5.73783 5.16025 5.536 5.64752C5.33416 6.13479 5.28135 6.67097 5.38425 7.18825C5.48714 7.70553 5.74112 8.18069 6.11406 8.55363C6.487 8.92657 6.96215 9.18054 7.47944 9.28344C7.99672 9.38633 8.5329 9.33352 9.02017 9.13169C9.50744 8.92985 9.92391 8.58806 10.2169 8.14953C10.5099 7.711 10.6663 7.19543 10.6663 6.66801C10.6663 5.96077 10.3854 5.28249 9.88529 4.78239C9.3852 4.28229 8.70692 4.00134 7.99968 4.00134ZM7.99968 8.00134C7.73597 8.00134 7.47818 7.92314 7.25892 7.77664C7.03965 7.63013 6.86875 7.42189 6.76784 7.17825C6.66692 6.93462 6.64052 6.66653 6.69196 6.40789C6.74341 6.14925 6.8704 5.91167 7.05687 5.7252C7.24334 5.53873 7.48091 5.41174 7.73956 5.3603C7.9982 5.30885 8.26629 5.33525 8.50992 5.43617C8.75356 5.53709 8.96179 5.70798 9.1083 5.92725C9.25481 6.14651 9.33301 6.4043 9.33301 6.66801C9.33301 7.02163 9.19253 7.36077 8.94248 7.61082C8.69244 7.86087 8.3533 8.00134 7.99968 8.00134Z" fill="currentColor"/>
        <path d="M8.00021 16.0013C7.43884 16.0042 6.88495 15.8725 6.38492 15.6174C5.88489 15.3622 5.45327 14.9909 5.12621 14.5347C2.58554 11.03 1.29688 8.39533 1.29688 6.70333C1.29688 4.9255 2.00312 3.22048 3.26024 1.96336C4.51735 0.706242 6.22237 0 8.00021 0C9.77804 0 11.4831 0.706242 12.7402 1.96336C13.9973 3.22048 14.7035 4.9255 14.7035 6.70333C14.7035 8.39533 13.4149 11.03 10.8742 14.5347C10.5471 14.9909 10.1155 15.3622 9.6155 15.6174C9.11547 15.8725 8.56158 16.0042 8.00021 16.0013ZM8.00021 1.45533C6.60849 1.45692 5.27422 2.01048 4.29012 2.99458C3.30603 3.97868 2.75246 5.31294 2.75087 6.70467C2.75087 8.04467 4.01287 10.5227 6.30354 13.682C6.498 13.9499 6.75312 14.1679 7.04802 14.3182C7.34291 14.4685 7.66921 14.5469 8.00021 14.5469C8.33121 14.5469 8.6575 14.4685 8.9524 14.3182C9.24729 14.1679 9.50241 13.9499 9.69687 13.682C11.9875 10.5227 13.2495 8.04467 13.2495 6.70467C13.248 5.31294 12.6944 3.97868 11.7103 2.99458C10.7262 2.01048 9.39193 1.45692 8.00021 1.45533Z" fill="currentColor"/>
    </g>
    <defs>
        <clipPath id="clip0_1_7990">
            <rect width="16" height="16" fill="white" transform="translate(0 0.00134277)"/>
        </clipPath>
    </defs>
</svg>
