<svg width="33" height="32" viewBox="0 0 33 32" fill="none" xmlns="http://www.w3.org/2000/svg">
    <path d="M28.25 14.6667H21.5833C19.378 14.6667 17.5833 16.4613 17.5833 18.6667V28C17.5833 30.2053 19.378 32 21.5833 32H28.25C30.4553 32 32.25 30.2053 32.25 28V18.6667C32.25 16.4613 30.4553 14.6667 28.25 14.6667ZM29.5833 28C29.5833 28.7347 28.986 29.3333 28.25 29.3333H21.5833C20.8473 29.3333 20.25 28.7347 20.25 28V18.6667C20.25 17.932 20.8473 17.3333 21.5833 17.3333H28.25C28.986 17.3333 29.5833 17.932 29.5833 18.6667V28ZM28.25 21.3293C28.25 22.0653 27.654 22.6627 26.9167 22.6627H22.9167C22.1793 22.6627 21.5833 22.0653 21.5833 21.3293C21.5833 20.5933 22.1793 19.996 22.9167 19.996H26.9167C27.654 19.996 28.25 20.5933 28.25 21.3293ZM28.25 25.3333C28.25 26.0693 27.654 26.6667 26.9167 26.6667H22.9167C22.1793 26.6667 21.5833 26.0693 21.5833 25.3333C21.5833 24.5973 22.1793 24 22.9167 24H26.9167C27.654 24 28.25 24.5973 28.25 25.3333ZM12.25 16C16.662 16 20.25 12.412 20.25 8C20.25 3.588 16.662 0 12.25 0C7.838 0 4.25 3.588 4.25 8C4.25 12.412 7.838 16 12.25 16ZM12.25 2.66667C15.1913 2.66667 17.5833 5.05867 17.5833 8C17.5833 10.9413 15.1913 13.3333 12.25 13.3333C9.30867 13.3333 6.91667 10.9413 6.91667 8C6.91667 5.05867 9.30867 2.66667 12.25 2.66667ZM14.9167 20C14.9167 20.736 14.3207 21.3333 13.5833 21.3333H12.25C7.10467 21.3333 2.91667 25.52 2.91667 30.6667C2.91667 31.4027 2.32067 32 1.58333 32C0.846 32 0.25 31.4027 0.25 30.6667C0.25 24.0507 5.63267 18.6667 12.25 18.6667H13.5833C14.3207 18.6667 14.9167 19.264 14.9167 20Z" fill="currentColor"/>
</svg>
