<svg width="33" height="32" viewBox="0 0 33 32" fill="none" xmlns="http://www.w3.org/2000/svg">
    <g clip-path="url(#clip0_1_7853)">
        <path d="M25.8333 2.66663H7.16667C3.49067 2.66663 0.5 5.65729 0.5 9.33329V21.3333C0.5 24.06 2.14933 26.4026 4.5 27.4346V29.3333C4.5 30.0706 5.09733 30.6666 5.83333 30.6666C6.56933 30.6666 7.16667 30.0706 7.16667 29.3333V28H25.8333V29.3333C25.8333 30.0706 26.4307 30.6666 27.1667 30.6666C27.9027 30.6666 28.5 30.0706 28.5 29.3333V27.4346C30.8507 26.4026 32.5 24.06 32.5 21.3333V9.33329C32.5 5.65729 29.5093 2.66663 25.8333 2.66663ZM29.8333 21.3333C29.8333 23.5386 28.0387 25.3333 25.8333 25.3333H7.16667C4.96133 25.3333 3.16667 23.5386 3.16667 21.3333V9.33329C3.16667 7.12796 4.96133 5.33329 7.16667 5.33329H25.8333C28.0387 5.33329 29.8333 7.12796 29.8333 9.33329V21.3333ZM19.1667 7.99996H8.5C7.02933 7.99996 5.83333 9.19596 5.83333 10.6666V20C5.83333 21.4706 7.02933 22.6666 8.5 22.6666H19.1667C20.6373 22.6666 21.8333 21.4706 21.8333 20V10.6666C21.8333 9.19596 20.6373 7.99996 19.1667 7.99996ZM8.5 20V10.6666H19.1667V20H8.5ZM27.1667 9.33329V21.3333C27.1667 22.0706 26.5693 22.6666 25.8333 22.6666C25.0973 22.6666 24.5 22.0706 24.5 21.3333V9.33329C24.5 8.59729 25.0973 7.99996 25.8333 7.99996C26.5693 7.99996 27.1667 8.59729 27.1667 9.33329Z" fill="currentColor"/>
    </g>
    <defs>
        <clipPath id="clip0_1_7853">
            <rect width="32" height="32" fill="white" transform="translate(0.5)"/>
        </clipPath>
    </defs>
</svg>
