<svg width="30" height="30" viewBox="0 0 30 30" fill="none" xmlns="http://www.w3.org/2000/svg">
<path d="M20 17.5C20 18.19 19.44 18.75 18.75 18.75H17.5C16.81 18.75 16.25 18.19 16.25 17.5C16.25 16.81 16.81 16.25 17.5 16.25H18.75C19.44 16.25 20 16.81 20 17.5ZM23.75 16.25H22.5C21.81 16.25 21.25 16.81 21.25 17.5C21.25 18.19 21.81 18.75 22.5 18.75H23.75C24.44 18.75 25 18.19 25 17.5C25 16.81 24.44 16.25 23.75 16.25ZM18.75 21.25H17.5C16.81 21.25 16.25 21.81 16.25 22.5C16.25 23.19 16.81 23.75 17.5 23.75H18.75C19.44 23.75 20 23.19 20 22.5C20 21.81 19.44 21.25 18.75 21.25ZM23.75 21.25H22.5C21.81 21.25 21.25 21.81 21.25 22.5C21.25 23.19 21.81 23.75 22.5 23.75H23.75C24.44 23.75 25 23.19 25 22.5C25 21.81 24.44 21.25 23.75 21.25ZM18.75 6.25H17.5C16.81 6.25 16.25 6.81 16.25 7.5C16.25 8.19 16.81 8.75 17.5 8.75H18.75C19.44 8.75 20 8.19 20 7.5C20 6.81 19.44 6.25 18.75 6.25ZM23.75 6.25H22.5C21.81 6.25 21.25 6.81 21.25 7.5C21.25 8.19 21.81 8.75 22.5 8.75H23.75C24.44 8.75 25 8.19 25 7.5C25 6.81 24.44 6.25 23.75 6.25ZM18.75 11.25H17.5C16.81 11.25 16.25 11.81 16.25 12.5C16.25 13.19 16.81 13.75 17.5 13.75H18.75C19.44 13.75 20 13.19 20 12.5C20 11.81 19.44 11.25 18.75 11.25ZM23.75 11.25H22.5C21.81 11.25 21.25 11.81 21.25 12.5C21.25 13.19 21.81 13.75 22.5 13.75H23.75C24.44 13.75 25 13.19 25 12.5C25 11.81 24.44 11.25 23.75 11.25ZM30 6.25V23.75C30 27.1963 27.1963 30 23.75 30H6.25C2.80375 30 0 27.1963 0 23.75V11.5725C0 9.88375 0.6975 8.2425 1.91375 7.07125L4.27375 4.79875C5.7325 3.3925 8.0175 3.39375 9.47625 4.79875L11.25 6.5075V6.25C11.25 2.80375 14.0538 0 17.5 0H23.75C27.1963 0 30 2.80375 30 6.25ZM11.25 11.5725C11.25 10.5588 10.8313 9.575 10.1013 8.87125L7.74125 6.59875C7.49875 6.36375 7.18625 6.2475 6.875 6.2475C6.56375 6.2475 6.25125 6.36375 6.00875 6.59875L3.64875 8.87125C2.91875 9.57375 2.5 10.5588 2.5 11.5725V23.75C2.5 25.8175 4.1825 27.5 6.25 27.5H11.25V11.5725ZM27.5 6.25C27.5 4.1825 25.8175 2.5 23.75 2.5H17.5C15.4325 2.5 13.75 4.1825 13.75 6.25V27.5H23.75C25.8175 27.5 27.5 25.8175 27.5 23.75V6.25ZM7.5 16.25H6.25C5.56 16.25 5 16.81 5 17.5C5 18.19 5.56 18.75 6.25 18.75H7.5C8.19 18.75 8.75 18.19 8.75 17.5C8.75 16.81 8.19 16.25 7.5 16.25ZM7.5 11.25H6.25C5.56 11.25 5 11.81 5 12.5C5 13.19 5.56 13.75 6.25 13.75H7.5C8.19 13.75 8.75 13.19 8.75 12.5C8.75 11.81 8.19 11.25 7.5 11.25ZM7.5 21.25H6.25C5.56 21.25 5 21.81 5 22.5C5 23.19 5.56 23.75 6.25 23.75H7.5C8.19 23.75 8.75 23.19 8.75 22.5C8.75 21.81 8.19 21.25 7.5 21.25Z"/>
</svg>
