<svg width="24" height="24" viewBox="0 0 24 24" fill="none" xmlns="http://www.w3.org/2000/svg">
<g clip-path="url(#clip0_397_10621)">
<path d="M22.1699 1.82009L21.1199 0.910094C19.9099 -0.299906 17.9499 -0.299906 16.7399 0.910094C16.7099 0.940094 14.8599 3.35009 14.8599 3.35009C13.7199 4.55009 13.7199 6.44009 14.8599 7.6301L16.0199 9.0901C14.5599 12.4001 12.2899 14.6801 9.08994 16.0401L7.62994 14.8701C6.43994 13.7201 4.53994 13.7201 3.34994 14.8701C3.34994 14.8701 0.939943 16.7201 0.909943 16.7501C-0.300057 17.9601 -0.300057 19.9201 0.859943 21.0801L1.85994 22.2301C3.00994 23.3801 4.55994 24.0101 6.23994 24.0101C13.8799 24.0101 23.9999 13.8801 23.9999 6.25009C23.9999 4.58009 23.3699 3.02009 22.1699 1.83009V1.82009ZM6.23994 22.0001C5.09994 22.0001 4.04994 21.5801 3.32994 20.8501L2.32994 19.7001C1.91994 19.2901 1.89994 18.6201 2.28994 18.1901C2.28994 18.1901 4.67994 16.3501 4.70994 16.3201C5.11994 15.9101 5.83994 15.9101 6.25994 16.3201C6.28994 16.3501 8.29994 17.9601 8.29994 17.9601C8.57994 18.1801 8.94994 18.2401 9.27994 18.1101C13.4199 16.5301 16.3899 13.5701 18.0999 9.3001C18.2299 8.9701 18.1799 8.5901 17.9499 8.3001C17.9499 8.3001 16.3399 6.2801 16.3199 6.2601C15.8899 5.83009 15.8899 5.14009 16.3199 4.71009C16.3499 4.68009 18.1899 2.29009 18.1899 2.29009C18.6199 1.90009 19.2899 1.91009 19.7499 2.37009L20.7999 3.28009C21.5699 4.05009 21.9999 5.10009 21.9999 6.24009C21.9999 13.2001 12.2299 22.0001 6.23994 22.0001Z" fill="#767676"/>
</g>
<defs>
<clipPath id="clip0_397_10621">
<rect width="24" height="24" fill="white"/>
</clipPath>
</defs>
</svg>
