<svg width="25" height="24" viewBox="0 0 25 24" fill="none" xmlns="http://www.w3.org/2000/svg">
    <path
        d="M18.5994 8.50027C18.5994 9.16331 18.336 9.7992 17.8672 10.268C17.3983 10.7369 16.7624 11.0003 16.0994 11.0003C15.4363 11.0003 14.8005 10.7369 14.3316 10.268C13.8628 9.7992 13.5994 9.16331 13.5994 8.50027C13.5994 7.83723 13.8628 7.20135 14.3316 6.73251C14.8005 6.26367 15.4363 6.00027 16.0994 6.00027C16.7624 6.00027 17.3983 6.26367 17.8672 6.73251C18.336 7.20135 18.5994 7.83723 18.5994 8.50027ZM18.5934 15.3663C18.5385 16.9551 18.1418 18.5135 17.4304 19.9353C16.7749 21.1748 15.7907 22.2099 14.5857 22.927C13.3807 23.6441 12.0015 24.0154 10.5994 24.0003H9.59938V18.5003C9.59491 17.5734 9.22473 16.6857 8.56932 16.0303C7.91391 15.3749 7.02626 15.0047 6.09938 15.0003H0.599383V14.0003C0.584244 12.5981 0.955577 11.2189 1.67264 10.0139C2.38971 8.80896 3.42481 7.82474 4.66438 7.16927C6.08615 6.45787 7.64452 6.0612 9.23338 6.00627C10.6902 4.12451 12.5611 2.6038 14.7009 1.5622C16.8406 0.520601 19.1916 -0.013873 21.5714 0.000273676C21.9674 -0.00222854 22.36 0.0734566 22.7266 0.22299C23.0933 0.372522 23.4269 0.592962 23.7082 0.871669C23.9895 1.15038 24.213 1.48187 24.3659 1.84714C24.5189 2.21241 24.5982 2.60428 24.5994 3.00027C24.6163 5.38449 24.0833 7.7405 23.0416 9.8852C22 12.0299 20.4778 13.9055 18.5934 15.3663ZM2.68338 13.0003H4.94538C5.68803 11.3463 6.56042 9.75362 7.55438 8.23727C6.864 8.39789 6.19502 8.63957 5.56138 8.95727C4.79932 9.35969 4.14209 9.93497 3.64232 10.637C3.14255 11.3391 2.81414 12.1485 2.68338 13.0003ZM16.3624 17.0453C14.846 18.0392 13.2534 18.9116 11.5994 19.6543V21.9163C12.4512 21.7855 13.2605 21.4571 13.9626 20.9573C14.6647 20.4576 15.24 19.8003 15.6424 19.0383C15.9601 18.4046 16.2018 17.7357 16.3624 17.0453ZM22.5994 2.97227C22.5921 2.71194 22.4835 2.46472 22.2968 2.2832C22.11 2.10168 21.8598 2.00017 21.5994 2.00027C16.4394 2.14727 12.9494 4.12427 9.58138 8.82227C8.64153 10.1755 7.81505 11.604 7.11038 13.0933C8.2023 13.2966 9.20707 13.8258 9.99245 14.6112C10.7778 15.3966 11.307 16.4014 11.5104 17.4933C12.9997 16.7886 14.4282 15.9621 15.7814 15.0223C20.4754 11.6503 22.4524 8.16027 22.5994 2.97227ZM6.72138 17.8793C7.28015 18.4438 7.59359 19.206 7.59359 20.0003C7.59359 20.7946 7.28015 21.5568 6.72138 22.1213C5.81438 23.0273 3.09938 23.5863 1.97338 23.7853L0.567383 24.0323L0.814383 22.6263C1.01438 21.5003 1.57238 18.7853 2.47838 17.8783C3.05013 17.3329 3.80996 17.0288 4.60008 17.029C5.3902 17.0291 6.14989 17.3337 6.72138 17.8793ZM5.59938 20.0003C5.59974 19.8689 5.57403 19.7388 5.52373 19.6174C5.47344 19.4961 5.39956 19.3859 5.30638 19.2933C5.11886 19.1058 4.86455 19.0005 4.59938 19.0005C4.33422 19.0005 4.07991 19.1058 3.89238 19.2933C3.51113 19.9815 3.24335 20.7268 3.09938 21.5003C3.87319 21.3557 4.61871 21.0876 5.30738 20.7063C5.40026 20.6137 5.47388 20.5037 5.524 20.3825C5.57412 20.2613 5.59974 20.1314 5.59938 20.0003Z"
        fill="#BB6BD9" />
</svg>