<svg width="18" height="24" viewBox="0 0 18 24" fill="none" xmlns="http://www.w3.org/2000/svg">
<path d="M13.999 24H4.00401C3.42572 23.9997 2.85433 23.8744 2.32895 23.6328C1.80357 23.3912 1.3366 23.0389 0.960007 22.6C0.588718 22.1707 0.314557 21.6663 0.156288 21.1212C-0.00198162 20.5762 -0.0406236 20.0034 0.0430066 19.442C0.579918 16.5175 2.13997 13.8795 4.44401 12C2.13994 10.1199 0.580212 7.48109 0.0440068 4.556C-0.0394597 3.99502 -0.000828579 3.42262 0.15726 2.87794C0.315349 2.33326 0.589169 1.82913 0.960007 1.4C1.3366 0.961146 1.80357 0.608844 2.32895 0.36721C2.85433 0.125575 3.42572 0.000313842 4.00401 0L13.999 0C14.5773 0.000512143 15.1486 0.125862 15.6739 0.367483C16.1993 0.609104 16.6663 0.9613 17.043 1.4C17.4139 1.82895 17.6879 2.33285 17.8463 2.87732C18.0047 3.42179 18.0439 3.99403 17.961 4.555C17.4193 7.48095 15.8561 10.1194 13.55 12C15.8548 13.8822 17.4162 16.5217 17.956 19.448C18.0389 20.0091 17.9999 20.5815 17.8414 21.1262C17.683 21.6708 17.409 22.1749 17.038 22.604C16.6615 23.0413 16.1951 23.3924 15.6707 23.6333C15.1463 23.8742 14.5761 23.9993 13.999 24ZM13.999 2H4.00401C3.71394 1.99982 3.42725 2.06227 3.16354 2.18308C2.89983 2.30389 2.66531 2.48022 2.47601 2.7C2.29116 2.91043 2.15456 3.15874 2.07579 3.42753C1.99702 3.69632 1.97798 3.97908 2.02001 4.256C2.39601 6.756 3.94401 9.096 6.62001 11.213C6.73825 11.3066 6.83378 11.4258 6.89946 11.5615C6.96513 11.6973 6.99925 11.8462 6.99925 11.997C6.99925 12.1478 6.96513 12.2967 6.89946 12.4325C6.83378 12.5682 6.73825 12.6874 6.62001 12.781C3.94401 14.9 2.39901 17.242 2.02001 19.741C1.97753 20.0184 1.99634 20.3017 2.07512 20.5711C2.1539 20.8404 2.29074 21.0892 2.47601 21.3C2.66531 21.5198 2.89983 21.6961 3.16354 21.8169C3.42725 21.9377 3.71394 22.0002 4.00401 22H13.999C14.2891 22.0002 14.5758 21.9378 14.8395 21.817C15.1032 21.6962 15.3377 21.5198 15.527 21.3C15.7118 21.0899 15.8484 20.842 15.9272 20.5735C16.0059 20.3051 16.025 20.0226 15.983 19.746C15.61 17.259 14.063 14.917 11.383 12.784C11.2655 12.6903 11.1706 12.5714 11.1054 12.436C11.0402 12.3006 11.0063 12.1523 11.0063 12.002C11.0063 11.8517 11.0402 11.7034 11.1054 11.568C11.1706 11.4326 11.2655 11.3137 11.383 11.22C14.064 9.087 15.611 6.745 15.983 4.257C16.0249 3.97955 16.0053 3.69629 15.9256 3.42725C15.8459 3.1582 15.7082 2.90994 15.522 2.7C15.3333 2.4808 15.0996 2.30482 14.8368 2.18403C14.574 2.06324 14.2882 2.00047 13.999 2ZM12.68 20H5.31701C5.15339 19.9999 4.99228 19.9597 4.84782 19.8829C4.70337 19.806 4.57997 19.6949 4.48846 19.5593C4.39695 19.4236 4.34012 19.2676 4.32295 19.1049C4.30579 18.9422 4.32881 18.7777 4.39001 18.626C5.17308 16.9351 6.36621 15.4666 7.86101 14.354L8.37901 13.942C8.55596 13.8012 8.7754 13.7246 9.00151 13.7246C9.22761 13.7246 9.44705 13.8012 9.62401 13.942L10.133 14.348C11.6257 15.465 12.8188 16.934 13.606 18.624C13.6676 18.7758 13.691 18.9403 13.674 19.1033C13.6571 19.2662 13.6005 19.4224 13.509 19.5583C13.4176 19.6942 13.2942 19.8055 13.1496 19.8826C13.005 19.9596 12.8438 19.9999 12.68 20ZM7.03301 18H10.961C10.3904 17.2563 9.73161 16.5847 8.99901 16C8.26317 16.5824 7.60275 17.2543 7.03301 18Z"/>
</svg>
